<mxfile host="app.diagrams.net" agent="Mozilla/5.0 (Windows NT 10.0; Win64; x64) AppleWebKit/537.36 (KHTML, like Gecko) Chrome/128.0.0.0 Safari/537.36" version="24.7.13">
  <diagram name="Page-1" id="2YBvvXClWsGukQMizWep">
    <mxGraphModel dx="1970" dy="1526" grid="1" gridSize="10" guides="1" tooltips="1" connect="1" arrows="1" fold="1" page="1" pageScale="1" pageWidth="850" pageHeight="1100" math="0" shadow="0">
      <root>
        <mxCell id="0" />
        <mxCell id="1" parent="0" />
        <mxCell id="aM9ryv3xv72pqoxQDRHE-1" value="Controller_Login" style="shape=umlLifeline;perimeter=lifelinePerimeter;whiteSpace=wrap;html=1;container=0;dropTarget=0;collapsible=0;recursiveResize=0;outlineConnect=0;portConstraint=eastwest;newEdgeStyle={&quot;edgeStyle&quot;:&quot;elbowEdgeStyle&quot;,&quot;elbow&quot;:&quot;vertical&quot;,&quot;curved&quot;:0,&quot;rounded&quot;:0};" parent="1" vertex="1">
          <mxGeometry x="190" y="40" width="100" height="300" as="geometry" />
        </mxCell>
        <mxCell id="aM9ryv3xv72pqoxQDRHE-2" value="" style="html=1;points=[];perimeter=orthogonalPerimeter;outlineConnect=0;targetShapes=umlLifeline;portConstraint=eastwest;newEdgeStyle={&quot;edgeStyle&quot;:&quot;elbowEdgeStyle&quot;,&quot;elbow&quot;:&quot;vertical&quot;,&quot;curved&quot;:0,&quot;rounded&quot;:0};" parent="aM9ryv3xv72pqoxQDRHE-1" vertex="1">
          <mxGeometry x="45" y="70" width="10" height="190" as="geometry" />
        </mxCell>
        <mxCell id="aM9ryv3xv72pqoxQDRHE-5" value="Token" style="shape=umlLifeline;perimeter=lifelinePerimeter;whiteSpace=wrap;html=1;container=0;dropTarget=0;collapsible=0;recursiveResize=0;outlineConnect=0;portConstraint=eastwest;newEdgeStyle={&quot;edgeStyle&quot;:&quot;elbowEdgeStyle&quot;,&quot;elbow&quot;:&quot;vertical&quot;,&quot;curved&quot;:0,&quot;rounded&quot;:0};" parent="1" vertex="1">
          <mxGeometry x="590" y="40" width="100" height="300" as="geometry" />
        </mxCell>
        <mxCell id="aM9ryv3xv72pqoxQDRHE-6" value="" style="html=1;points=[];perimeter=orthogonalPerimeter;outlineConnect=0;targetShapes=umlLifeline;portConstraint=eastwest;newEdgeStyle={&quot;edgeStyle&quot;:&quot;elbowEdgeStyle&quot;,&quot;elbow&quot;:&quot;vertical&quot;,&quot;curved&quot;:0,&quot;rounded&quot;:0};" parent="aM9ryv3xv72pqoxQDRHE-5" vertex="1">
          <mxGeometry x="45" y="80" width="10" height="170" as="geometry" />
        </mxCell>
        <mxCell id="aM9ryv3xv72pqoxQDRHE-8" value="return token" style="html=1;verticalAlign=bottom;endArrow=open;dashed=1;endSize=8;edgeStyle=elbowEdgeStyle;elbow=vertical;curved=0;rounded=0;" parent="1" target="aM9ryv3xv72pqoxQDRHE-1" edge="1">
          <mxGeometry relative="1" as="geometry">
            <mxPoint x="340" y="240" as="targetPoint" />
            <Array as="points">
              <mxPoint x="380" y="240" />
            </Array>
            <mxPoint x="625" y="240" as="sourcePoint" />
          </mxGeometry>
        </mxCell>
        <mxCell id="JnTyzwR_qOlekMggj9Kj-1" value="/loginRoute" style="shape=umlLifeline;perimeter=lifelinePerimeter;whiteSpace=wrap;html=1;container=0;dropTarget=0;collapsible=0;recursiveResize=0;outlineConnect=0;portConstraint=eastwest;newEdgeStyle={&quot;edgeStyle&quot;:&quot;elbowEdgeStyle&quot;,&quot;elbow&quot;:&quot;vertical&quot;,&quot;curved&quot;:0,&quot;rounded&quot;:0};" vertex="1" parent="1">
          <mxGeometry x="-60" y="40" width="100" height="300" as="geometry" />
        </mxCell>
        <mxCell id="JnTyzwR_qOlekMggj9Kj-2" value="" style="html=1;points=[];perimeter=orthogonalPerimeter;outlineConnect=0;targetShapes=umlLifeline;portConstraint=eastwest;newEdgeStyle={&quot;edgeStyle&quot;:&quot;elbowEdgeStyle&quot;,&quot;elbow&quot;:&quot;vertical&quot;,&quot;curved&quot;:0,&quot;rounded&quot;:0};" vertex="1" parent="JnTyzwR_qOlekMggj9Kj-1">
          <mxGeometry x="45" y="80" width="10" height="200" as="geometry" />
        </mxCell>
        <mxCell id="JnTyzwR_qOlekMggj9Kj-3" value="/listar-usuarios" style="shape=umlLifeline;perimeter=lifelinePerimeter;whiteSpace=wrap;html=1;container=0;dropTarget=0;collapsible=0;recursiveResize=0;outlineConnect=0;portConstraint=eastwest;newEdgeStyle={&quot;edgeStyle&quot;:&quot;elbowEdgeStyle&quot;,&quot;elbow&quot;:&quot;vertical&quot;,&quot;curved&quot;:0,&quot;rounded&quot;:0};" vertex="1" parent="1">
          <mxGeometry x="-240" y="40" width="100" height="300" as="geometry" />
        </mxCell>
        <mxCell id="JnTyzwR_qOlekMggj9Kj-4" value="" style="html=1;points=[];perimeter=orthogonalPerimeter;outlineConnect=0;targetShapes=umlLifeline;portConstraint=eastwest;newEdgeStyle={&quot;edgeStyle&quot;:&quot;elbowEdgeStyle&quot;,&quot;elbow&quot;:&quot;vertical&quot;,&quot;curved&quot;:0,&quot;rounded&quot;:0};" vertex="1" parent="JnTyzwR_qOlekMggj9Kj-3">
          <mxGeometry x="45" y="80" width="10" height="200" as="geometry" />
        </mxCell>
        <mxCell id="JnTyzwR_qOlekMggj9Kj-6" value="validar_token_admin" style="html=1;verticalAlign=bottom;startArrow=oval;endArrow=block;startSize=8;edgeStyle=elbowEdgeStyle;elbow=vertical;curved=0;rounded=0;entryX=0.2;entryY=0.124;entryDx=0;entryDy=0;entryPerimeter=0;" edge="1" parent="1" source="JnTyzwR_qOlekMggj9Kj-3" target="JnTyzwR_qOlekMggj9Kj-2">
          <mxGeometry relative="1" as="geometry">
            <mxPoint x="-140" y="140" as="sourcePoint" />
            <mxPoint x="-80" y="140" as="targetPoint" />
          </mxGeometry>
        </mxCell>
        <mxCell id="JnTyzwR_qOlekMggj9Kj-7" value="retornar_token_admin (Authorization)" style="html=1;verticalAlign=bottom;startArrow=oval;endArrow=block;startSize=8;edgeStyle=elbowEdgeStyle;elbow=vertical;curved=0;rounded=0;entryX=0.2;entryY=0.274;entryDx=0;entryDy=0;entryPerimeter=0;" edge="1" parent="1" source="JnTyzwR_qOlekMggj9Kj-1" target="aM9ryv3xv72pqoxQDRHE-2">
          <mxGeometry x="0.0023" relative="1" as="geometry">
            <mxPoint x="10" y="160" as="sourcePoint" />
            <mxPoint x="140" y="160" as="targetPoint" />
            <mxPoint as="offset" />
          </mxGeometry>
        </mxCell>
        <mxCell id="JnTyzwR_qOlekMggj9Kj-8" value="verificar_token (token)" style="html=1;verticalAlign=bottom;startArrow=oval;endArrow=block;startSize=8;edgeStyle=elbowEdgeStyle;elbow=vertical;curved=0;rounded=0;" edge="1" parent="1" source="aM9ryv3xv72pqoxQDRHE-1" target="aM9ryv3xv72pqoxQDRHE-5">
          <mxGeometry x="0.0023" relative="1" as="geometry">
            <mxPoint x="320" y="200" as="sourcePoint" />
            <mxPoint x="567" y="200" as="targetPoint" />
            <mxPoint as="offset" />
          </mxGeometry>
        </mxCell>
        <mxCell id="JnTyzwR_qOlekMggj9Kj-9" value="return token" style="html=1;verticalAlign=bottom;endArrow=open;dashed=1;endSize=8;edgeStyle=elbowEdgeStyle;elbow=vertical;curved=0;rounded=0;" edge="1" parent="1" source="aM9ryv3xv72pqoxQDRHE-1" target="JnTyzwR_qOlekMggj9Kj-2">
          <mxGeometry relative="1" as="geometry">
            <mxPoint x="10" y="270" as="targetPoint" />
            <Array as="points">
              <mxPoint x="150" y="270" />
            </Array>
            <mxPoint x="220" y="270" as="sourcePoint" />
          </mxGeometry>
        </mxCell>
        <mxCell id="JnTyzwR_qOlekMggj9Kj-10" value="return token" style="html=1;verticalAlign=bottom;endArrow=open;dashed=1;endSize=8;edgeStyle=elbowEdgeStyle;elbow=vertical;curved=0;rounded=0;" edge="1" parent="1" source="JnTyzwR_qOlekMggj9Kj-1" target="JnTyzwR_qOlekMggj9Kj-3">
          <mxGeometry relative="1" as="geometry">
            <mxPoint x="-160" y="300" as="targetPoint" />
            <Array as="points">
              <mxPoint x="-125" y="300" />
            </Array>
            <mxPoint x="-35" y="300" as="sourcePoint" />
          </mxGeometry>
        </mxCell>
        <mxCell id="JnTyzwR_qOlekMggj9Kj-11" value="&quot;/listar-usuarios&quot; e &quot;/oginRoute&quot; são rotas da aplicação" style="shape=note2;boundedLbl=1;whiteSpace=wrap;html=1;size=25;verticalAlign=top;align=center;" vertex="1" parent="1">
          <mxGeometry x="-170" y="-90" width="150" height="90" as="geometry" />
        </mxCell>
      </root>
    </mxGraphModel>
  </diagram>
</mxfile>
